<svg width="20" height="16" viewBox="0 0 20 16" fill="none" xmlns="http://www.w3.org/2000/svg">
<path d="M8.75 5.5C8.8875 5.5 9 5.3875 9 5.25V4.75C9 4.6125 8.8875 4.5 8.75 4.5H1.25C1.1125 4.5 1 4.6125 1 4.75V5.25C1 5.3875 1.1125 5.5 1.25 5.5H8.75ZM19.75 11.5H19V8.12187C19 7.59687 18.7875 7.08125 18.4125 6.70937L15.7906 4.0875C15.4219 3.7125 14.9062 3.5 14.3781 3.5H13V1.95625C13 1.15312 12.3063 0.5 11.4563 0.5H3.54375C2.69375 0.5 2 1.15312 2 1.95625V2.5H0.25C0.1125 2.5 0 2.6125 0 2.75V3.25C0 3.3875 0.1125 3.5 0.25 3.5H7.75C7.8875 3.5 8 3.3875 8 3.25V2.75C8 2.6125 7.8875 2.5 7.75 2.5H3V1.95625C3 1.70312 3.24375 1.5 3.54375 1.5H11.4563C11.7563 1.5 12 1.70312 12 1.95625V11.5H6.4875C6.03125 10.8969 5.3125 10.5 4.5 10.5C3.93438 10.5 3.41875 10.6937 3 11.0125V8.5H2V13C2 14.3813 3.11875 15.5 4.5 15.5C5.88125 15.5 7 14.3813 7 13C7 12.8281 6.98125 12.6625 6.95 12.5H13.05C13.0156 12.6625 13 12.8281 13 13C13 14.3813 14.1187 15.5 15.5 15.5C16.8813 15.5 18 14.3813 18 13C18 12.8281 17.9813 12.6625 17.95 12.5H19.75C19.8875 12.5 20 12.3875 20 12.25V11.75C20 11.6125 19.8875 11.5 19.75 11.5ZM4.5 14.5C3.67188 14.5 3 13.8281 3 13C3 12.1719 3.67188 11.5 4.5 11.5C5.32812 11.5 6 12.1719 6 13C6 13.8281 5.32812 14.5 4.5 14.5ZM13 4.5H14.3781C14.6406 4.5 14.9 4.60625 15.0844 4.79375L17.7062 7.41563C17.7312 7.44063 17.7406 7.475 17.7625 7.50313H13V4.5ZM15.5 14.5C14.6719 14.5 14 13.8281 14 13C14 12.1719 14.6719 11.5 15.5 11.5C16.3281 11.5 17 12.1719 17 13C17 13.8281 16.3281 14.5 15.5 14.5ZM18 11.5H17.4875C17.0312 10.8969 16.3125 10.5 15.5 10.5C14.6875 10.5 13.9688 10.8969 13.5125 11.5H13V8.5H18V11.5ZM8 7.25V6.75C8 6.6125 7.8875 6.5 7.75 6.5H0.25C0.1125 6.5 0 6.6125 0 6.75V7.25C0 7.3875 0.1125 7.5 0.25 7.5H7.75C7.8875 7.5 8 7.3875 8 7.25Z" fill="black" stroke="black" stroke-width="0.03125"/>
</svg>
