<svg width="20" height="18" viewBox="0 0 20 18" fill="none" xmlns="http://www.w3.org/2000/svg">
<path d="M18.3369 6.0659L13.264 5.32631L10.9967 0.729091C10.5904 -0.090353 9.41332 -0.10077 9.0036 0.729091L6.73624 5.32631L1.66332 6.0659C0.753597 6.19784 0.389014 7.31937 1.04874 7.96173L4.71887 11.5381L3.85082 16.5902C3.69457 17.5034 4.65638 18.1874 5.46193 17.7603L10.0001 15.3749L14.5383 17.7603C15.3439 18.184 16.3057 17.5034 16.1494 16.5902L15.2814 11.5381L18.9515 7.96173C19.6112 7.31937 19.2467 6.19784 18.3369 6.0659ZM13.4932 10.9548L14.3161 15.7603L10.0001 13.493L5.68415 15.7603L6.50707 10.9548L3.01401 7.55201L7.8404 6.85062L10.0001 2.47562L12.1598 6.85062L16.9862 7.55201L13.4932 10.9548Z" fill="#484848"/>
</svg>
